<svg width="772" height="536" viewBox="0 0 772 536" fill="none" xmlns="http://www.w3.org/2000/svg">
<path fill-rule="evenodd" clip-rule="evenodd" d="M225.26 120C234.993 107.339 240.788 101.409 251.76 93L254.76 99L251.76 109C251.76 109 247.499 117.885 246.26 124C244.632 132.038 246.26 145 246.26 145L251.76 163C251.76 163 256.891 175.371 263.26 180.5C269.615 185.617 282.76 188 282.76 188L304.76 191.5L321.26 194H332.26L345.26 188L380.26 177.5L385.76 430.5C385.76 430.5 378.762 434.815 373.76 435C366.687 435.262 357.26 427.5 357.26 427.5C357.26 427.5 357.131 416.311 354.26 410C351.834 404.668 345.26 398 345.26 398C345.26 398 348.102 386.51 348.26 379C348.443 370.331 345.26 357 345.26 357C345.26 357 333.752 350.509 328.76 344C324.668 338.664 323.352 334.891 321.26 328.5C318.2 319.155 318.26 303.5 318.26 303.5L314.76 295L307.76 291.5C307.76 291.5 312.675 288.093 314.76 285C319.89 277.39 314.76 261.5 314.76 261.5C314.76 261.5 313.817 248.183 307.76 244C304.251 241.577 297.26 241 297.26 241L314.76 229.5V226H297.26C297.26 226 273.435 225.324 259.76 219.5C248.748 214.811 242.155 211.495 234.26 202.5C227.001 194.23 221.26 177.5 221.26 177.5C221.26 177.5 215.757 157.699 217.26 145C218.465 134.82 225.26 120 225.26 120ZM369.76 410C361.871 399.785 375.76 377.5 375.76 377.5C375.76 377.5 379.457 387.989 380.26 395C380.449 396.652 380.832 398.211 381.197 399.7C382.117 403.455 382.929 406.764 380.26 410C380.133 410.154 380.007 410.308 379.882 410.462C378.13 412.606 376.465 414.644 373.76 414C372.162 413.62 371.476 412.561 370.674 411.324C370.397 410.897 370.106 410.449 369.76 410Z" fill="#78350F"/>
<path d="M297.26 241L314.76 229.5V226H297.26C297.26 226 273.435 225.324 259.76 219.5C248.748 214.811 242.155 211.495 234.26 202.5C227.001 194.23 221.26 177.5 221.26 177.5C221.26 177.5 215.757 157.699 217.26 145C218.465 134.82 225.26 120 225.26 120C234.993 107.339 240.788 101.409 251.76 93L254.76 99L251.76 109C251.76 109 247.499 117.885 246.26 124C244.632 132.038 246.26 145 246.26 145L251.76 163C251.76 163 256.891 175.371 263.26 180.5C269.615 185.617 282.76 188 282.76 188L304.76 191.5L321.26 194H332.26L345.26 188L380.26 177.5L385.76 430.5C385.76 430.5 378.762 434.815 373.76 435C366.687 435.262 357.26 427.5 357.26 427.5C357.26 427.5 357.131 416.311 354.26 410C351.834 404.668 345.26 398 345.26 398C345.26 398 348.102 386.51 348.26 379C348.443 370.331 345.26 357 345.26 357C345.26 357 333.752 350.509 328.76 344C324.668 338.664 323.352 334.891 321.26 328.5C318.2 319.155 318.26 303.5 318.26 303.5L314.76 295L307.76 291.5M297.26 241C297.26 241 294.033 249.367 293.26 255C292.517 260.417 292.43 263.596 293.26 269C294.472 276.885 294.459 283.108 300.76 288C303.174 289.874 307.76 291.5 307.76 291.5M297.26 241C297.26 241 304.251 241.577 307.76 244C313.817 248.183 314.76 261.5 314.76 261.5C314.76 261.5 319.89 277.39 314.76 285C312.675 288.093 307.76 291.5 307.76 291.5M375.76 377.5C375.76 377.5 361.871 399.785 369.76 410C370.106 410.449 370.397 410.897 370.674 411.324C371.476 412.561 372.162 413.62 373.76 414C376.465 414.644 378.13 412.606 379.882 410.462C380.007 410.308 380.133 410.154 380.26 410C382.929 406.764 382.117 403.455 381.197 399.7C380.832 398.211 380.449 396.652 380.26 395C379.457 387.989 375.76 377.5 375.76 377.5Z" stroke="#78350F" stroke-width="4"/>
<path fill-rule="evenodd" clip-rule="evenodd" d="M546.5 120C536.767 107.339 530.972 101.409 520 93L517 99L520 109C520 109 524.261 117.885 525.5 124C527.128 132.038 525.5 145 525.5 145L520 163C520 163 514.869 175.371 508.5 180.5C502.145 185.617 489 188 489 188L467 191.5L450.5 194H439.5L426.5 188L391.5 177.5L386 430.5C386 430.5 392.998 434.815 398 435C405.073 435.262 414.5 427.5 414.5 427.5C414.5 427.5 414.629 416.311 417.5 410C419.926 404.668 426.5 398 426.5 398C426.5 398 423.658 386.51 423.5 379C423.317 370.331 426.5 357 426.5 357C426.5 357 438.008 350.509 443 344C447.092 338.664 448.408 334.891 450.5 328.5C453.56 319.155 453.5 303.5 453.5 303.5L457 295L464 291.5C464 291.5 459.085 288.093 457 285C451.87 277.39 457 261.5 457 261.5C457 261.5 457.943 248.183 464 244C467.509 241.577 474.5 241 474.5 241L457 229.5V226H474.5C474.5 226 498.325 225.324 512 219.5C523.012 214.811 529.605 211.495 537.5 202.5C544.759 194.23 550.5 177.5 550.5 177.5C550.5 177.5 556.003 157.699 554.5 145C553.295 134.82 546.5 120 546.5 120ZM402 410C409.889 399.785 396 377.5 396 377.5C396 377.5 392.303 387.989 391.5 395C391.311 396.652 390.928 398.211 390.563 399.7C389.643 403.455 388.831 406.764 391.5 410C391.627 410.154 391.753 410.308 391.878 410.462C393.63 412.606 395.295 414.644 398 414C399.598 413.62 400.284 412.561 401.086 411.324C401.363 410.897 401.654 410.449 402 410Z" fill="#78350F"/>
<path d="M474.5 241L457 229.5V226H474.5C474.5 226 498.325 225.324 512 219.5C523.012 214.811 529.605 211.495 537.5 202.5C544.759 194.23 550.5 177.5 550.5 177.5C550.5 177.5 556.003 157.699 554.5 145C553.295 134.82 546.5 120 546.5 120C536.767 107.339 530.972 101.409 520 93L517 99L520 109C520 109 524.261 117.885 525.5 124C527.128 132.038 525.5 145 525.5 145L520 163C520 163 514.869 175.371 508.5 180.5C502.145 185.617 489 188 489 188L467 191.5L450.5 194H439.5L426.5 188L391.5 177.5L386 430.5C386 430.5 392.998 434.815 398 435C405.073 435.262 414.5 427.5 414.5 427.5C414.5 427.5 414.629 416.311 417.5 410C419.926 404.668 426.5 398 426.5 398C426.5 398 423.658 386.51 423.5 379C423.317 370.331 426.5 357 426.5 357C426.5 357 438.008 350.509 443 344C447.092 338.664 448.408 334.891 450.5 328.5C453.56 319.155 453.5 303.5 453.5 303.5L457 295L464 291.5M474.5 241C474.5 241 477.727 249.367 478.5 255C479.243 260.417 479.33 263.596 478.5 269C477.288 276.885 477.301 283.108 471 288C468.586 289.874 464 291.5 464 291.5M474.5 241C474.5 241 467.509 241.577 464 244C457.943 248.183 457 261.5 457 261.5C457 261.5 451.87 277.39 457 285C459.085 288.093 464 291.5 464 291.5M396 377.5C396 377.5 409.889 399.785 402 410C401.654 410.449 401.363 410.897 401.086 411.324C400.284 412.561 399.598 413.62 398 414C395.295 414.644 393.63 412.606 391.878 410.462C391.753 410.308 391.627 410.154 391.5 410C388.831 406.764 389.643 403.455 390.563 399.7C390.928 398.211 391.311 396.652 391.5 395C392.303 387.989 396 377.5 396 377.5Z" stroke="#78350F" stroke-width="4"/>
<path d="M228.295 487.841C228.114 486.008 227.333 484.583 225.955 483.568C224.576 482.553 222.705 482.045 220.341 482.045C218.735 482.045 217.379 482.273 216.273 482.727C215.167 483.167 214.318 483.78 213.727 484.568C213.152 485.356 212.864 486.25 212.864 487.25C212.833 488.083 213.008 488.811 213.386 489.432C213.78 490.053 214.318 490.591 215 491.045C215.682 491.485 216.47 491.871 217.364 492.205C218.258 492.523 219.212 492.795 220.227 493.023L224.409 494.023C226.439 494.477 228.303 495.083 230 495.841C231.697 496.598 233.167 497.53 234.409 498.636C235.652 499.742 236.614 501.045 237.295 502.545C237.992 504.045 238.348 505.765 238.364 507.705C238.348 510.553 237.621 513.023 236.182 515.114C234.758 517.189 232.697 518.803 230 519.955C227.318 521.091 224.083 521.659 220.295 521.659C216.538 521.659 213.265 521.083 210.477 519.932C207.705 518.78 205.538 517.076 203.977 514.818C202.432 512.545 201.621 509.735 201.545 506.386H211.068C211.174 507.947 211.621 509.25 212.409 510.295C213.212 511.326 214.28 512.106 215.614 512.636C216.962 513.152 218.485 513.409 220.182 513.409C221.848 513.409 223.295 513.167 224.523 512.682C225.765 512.197 226.727 511.523 227.409 510.659C228.091 509.795 228.432 508.803 228.432 507.682C228.432 506.636 228.121 505.758 227.5 505.045C226.894 504.333 226 503.727 224.818 503.227C223.652 502.727 222.22 502.273 220.523 501.864L215.455 500.591C211.53 499.636 208.432 498.144 206.159 496.114C203.886 494.083 202.758 491.348 202.773 487.909C202.758 485.091 203.508 482.629 205.023 480.523C206.553 478.417 208.652 476.773 211.318 475.591C213.985 474.409 217.015 473.818 220.409 473.818C223.864 473.818 226.879 474.409 229.455 475.591C232.045 476.773 234.061 478.417 235.5 480.523C236.939 482.629 237.682 485.068 237.727 487.841H228.295ZM254.824 474.455V521H244.983V474.455H254.824ZM301.852 474.455V521H293.352L273.102 491.705H272.761V521H262.92V474.455H271.557L291.648 503.727H292.057V474.455H301.852ZM351.051 490.75H341.097C340.915 489.462 340.544 488.318 339.983 487.318C339.422 486.303 338.703 485.439 337.824 484.727C336.945 484.015 335.93 483.47 334.778 483.091C333.642 482.712 332.407 482.523 331.074 482.523C328.665 482.523 326.566 483.121 324.778 484.318C322.991 485.5 321.604 487.227 320.619 489.5C319.634 491.758 319.142 494.5 319.142 497.727C319.142 501.045 319.634 503.833 320.619 506.091C321.619 508.348 323.013 510.053 324.801 511.205C326.589 512.356 328.657 512.932 331.006 512.932C332.324 512.932 333.544 512.758 334.665 512.409C335.801 512.061 336.809 511.553 337.688 510.886C338.566 510.205 339.294 509.379 339.869 508.409C340.46 507.439 340.869 506.333 341.097 505.091L351.051 505.136C350.794 507.273 350.15 509.333 349.119 511.318C348.104 513.288 346.733 515.053 345.006 516.614C343.294 518.159 341.248 519.386 338.869 520.295C336.506 521.189 333.831 521.636 330.847 521.636C326.695 521.636 322.983 520.697 319.71 518.818C316.453 516.939 313.877 514.22 311.983 510.659C310.104 507.098 309.165 502.788 309.165 497.727C309.165 492.652 310.119 488.333 312.028 484.773C313.938 481.212 316.528 478.5 319.801 476.636C323.074 474.758 326.756 473.818 330.847 473.818C333.544 473.818 336.044 474.197 338.347 474.955C340.665 475.712 342.718 476.818 344.506 478.273C346.294 479.712 347.748 481.477 348.869 483.568C350.006 485.659 350.733 488.053 351.051 490.75ZM358.108 521V474.455H389.472V482.568H367.949V493.659H387.858V501.773H367.949V512.886H389.562V521H358.108ZM411.835 521V513.909L428.403 498.568C429.813 497.205 430.994 495.977 431.949 494.886C432.919 493.795 433.653 492.727 434.153 491.682C434.653 490.621 434.903 489.477 434.903 488.25C434.903 486.886 434.593 485.712 433.972 484.727C433.35 483.727 432.502 482.962 431.426 482.432C430.35 481.886 429.131 481.614 427.767 481.614C426.343 481.614 425.1 481.902 424.04 482.477C422.979 483.053 422.161 483.879 421.585 484.955C421.009 486.03 420.722 487.311 420.722 488.795H411.381C411.381 485.75 412.07 483.106 413.449 480.864C414.828 478.621 416.759 476.886 419.244 475.659C421.729 474.432 424.593 473.818 427.835 473.818C431.169 473.818 434.07 474.409 436.54 475.591C439.025 476.758 440.956 478.379 442.335 480.455C443.714 482.53 444.403 484.909 444.403 487.591C444.403 489.348 444.055 491.083 443.358 492.795C442.676 494.508 441.456 496.409 439.699 498.5C437.941 500.576 435.464 503.068 432.267 505.977L425.472 512.636V512.955H445.017V521H411.835ZM470.398 522.023C466.489 522.008 463.125 521.045 460.307 519.136C457.504 517.227 455.345 514.462 453.83 510.841C452.33 507.22 451.587 502.864 451.602 497.773C451.602 492.697 452.352 488.371 453.852 484.795C455.367 481.22 457.527 478.5 460.33 476.636C463.148 474.758 466.504 473.818 470.398 473.818C474.292 473.818 477.64 474.758 480.443 476.636C483.261 478.515 485.428 481.242 486.943 484.818C488.458 488.379 489.208 492.697 489.193 497.773C489.193 502.879 488.436 507.242 486.92 510.864C485.42 514.485 483.269 517.25 480.466 519.159C477.663 521.068 474.307 522.023 470.398 522.023ZM470.398 513.864C473.064 513.864 475.193 512.523 476.784 509.841C478.375 507.159 479.163 503.136 479.148 497.773C479.148 494.242 478.784 491.303 478.057 488.955C477.345 486.606 476.33 484.841 475.011 483.659C473.708 482.477 472.17 481.886 470.398 481.886C467.746 481.886 465.625 483.212 464.034 485.864C462.443 488.515 461.64 492.485 461.625 497.773C461.625 501.348 461.981 504.333 462.693 506.727C463.42 509.106 464.443 510.894 465.761 512.091C467.08 513.273 468.625 513.864 470.398 513.864ZM496.21 521V513.909L512.778 498.568C514.188 497.205 515.369 495.977 516.324 494.886C517.294 493.795 518.028 492.727 518.528 491.682C519.028 490.621 519.278 489.477 519.278 488.25C519.278 486.886 518.968 485.712 518.347 484.727C517.725 483.727 516.877 482.962 515.801 482.432C514.725 481.886 513.506 481.614 512.142 481.614C510.718 481.614 509.475 481.902 508.415 482.477C507.354 483.053 506.536 483.879 505.96 484.955C505.384 486.03 505.097 487.311 505.097 488.795H495.756C495.756 485.75 496.445 483.106 497.824 480.864C499.203 478.621 501.134 476.886 503.619 475.659C506.104 474.432 508.968 473.818 512.21 473.818C515.544 473.818 518.445 474.409 520.915 475.591C523.4 476.758 525.331 478.379 526.71 480.455C528.089 482.53 528.778 484.909 528.778 487.591C528.778 489.348 528.43 491.083 527.733 492.795C527.051 494.508 525.831 496.409 524.074 498.5C522.316 500.576 519.839 503.068 516.642 505.977L509.847 512.636V512.955H529.392V521H496.21ZM536.523 521V513.909L553.091 498.568C554.5 497.205 555.682 495.977 556.636 494.886C557.606 493.795 558.341 492.727 558.841 491.682C559.341 490.621 559.591 489.477 559.591 488.25C559.591 486.886 559.28 485.712 558.659 484.727C558.038 483.727 557.189 482.962 556.114 482.432C555.038 481.886 553.818 481.614 552.455 481.614C551.03 481.614 549.788 481.902 548.727 482.477C547.667 483.053 546.848 483.879 546.273 484.955C545.697 486.03 545.409 487.311 545.409 488.795H536.068C536.068 485.75 536.758 483.106 538.136 480.864C539.515 478.621 541.447 476.886 543.932 475.659C546.417 474.432 549.28 473.818 552.523 473.818C555.856 473.818 558.758 474.409 561.227 475.591C563.712 476.758 565.644 478.379 567.023 480.455C568.402 482.53 569.091 484.909 569.091 487.591C569.091 489.348 568.742 491.083 568.045 492.795C567.364 494.508 566.144 496.409 564.386 498.5C562.629 500.576 560.152 503.068 556.955 505.977L550.159 512.636V512.955H569.705V521H536.523Z" fill="#78350F"/>
<path d="M15.6575 262.784L20.9998 251.887L54.7222 254.144L54.9623 253.654L32.5248 228.378L37.8671 217.481L79.6605 237.97L75.4587 246.541L48.2562 233.205L48.0862 233.552L69.7822 257.603L66.921 263.44L34.5183 260.97L34.3482 261.317L61.6526 274.702L57.4508 283.273L15.6575 262.784Z" fill="#78350F"/>
<path d="M90.9564 221.051L84.8492 229.648L56.2094 189.593L63.5538 179.254L110.792 193.13L104.684 201.727L68.658 190.435L68.4474 190.732L90.9564 221.051ZM75.6596 210.993L90.0853 190.686L96.3478 195.135L81.9221 215.442L75.6596 210.993Z" fill="#78350F"/>
<path d="M128.477 173.921L117.075 185.848L83.4308 153.683L94.9271 141.658C98.1624 138.274 101.621 136.005 105.303 134.85C108.974 133.685 112.692 133.645 116.456 134.728C120.231 135.8 123.865 138.007 127.359 141.347C130.863 144.697 133.242 148.239 134.494 151.972C135.756 155.695 135.883 159.432 134.874 163.184C133.876 166.925 131.744 170.504 128.477 173.921ZM117.781 172.908L122.1 168.39C124.11 166.287 125.428 164.163 126.055 162.016C126.682 159.848 126.552 157.648 125.666 155.418C124.779 153.166 123.082 150.841 120.574 148.444C118.088 146.067 115.706 144.491 113.427 143.718C111.159 142.933 108.967 142.902 106.85 143.624C104.734 144.347 102.671 145.76 100.661 147.862L96.3259 152.397L117.781 172.908Z" fill="#78350F"/>
<path d="M153.011 149.765L123.973 113.389L148.484 93.8221L153.546 100.163L136.726 113.591L143.645 122.258L159.204 109.838L164.266 116.179L148.707 128.599L155.64 137.285L172.532 123.801L177.594 130.142L153.011 149.765Z" fill="#78350F"/>
<path d="M189.969 67.3364L213.269 107.63L204.75 112.556L181.45 72.2628L189.969 67.3364Z" fill="#78350F"/>
<path d="M240.506 42.963L259.45 85.4791L251.686 88.9385L221.266 70.4206L220.954 70.5594L232.877 97.3188L223.888 101.324L204.945 58.8078L212.833 55.2929L243.099 73.8548L243.472 73.6883L231.559 46.9496L240.506 42.963Z" fill="#78350F"/>
<path d="M298.131 73.4868L287.833 75.7592L293.494 26.8448L305.878 24.112L331.576 66.1065L321.278 68.3789L302.155 35.8257L301.8 35.9041L298.131 73.4868ZM293.545 55.7632L317.869 50.3957L319.524 57.897L295.2 63.2645L293.545 55.7632Z" fill="#78350F"/>
<path d="M366.452 16.4355L376.267 15.7282L378.44 45.8773C378.684 49.2625 378.089 52.2827 376.655 54.9381C375.236 57.5924 373.134 59.7339 370.35 61.3624C367.565 62.9759 364.253 63.9209 360.414 64.1975C356.561 64.4752 353.14 64.0153 350.152 62.8178C347.164 61.6053 344.777 59.7873 342.992 57.3638C341.207 54.9404 340.193 52.0361 339.949 48.6509L337.776 18.5018L347.592 17.7945L349.704 47.1049C349.831 48.873 350.33 50.417 351.2 51.7366C352.084 53.0552 353.266 54.0563 354.743 54.7398C356.22 55.4232 357.903 55.6969 359.792 55.5608C361.696 55.4236 363.323 54.9114 364.671 54.0243C366.035 53.1361 367.053 51.9766 367.725 50.5458C368.412 49.114 368.691 47.514 368.564 45.7459L366.452 16.4355Z" fill="#78350F"/>
<path d="M419.311 30.8114C419.248 28.9701 418.562 27.4982 417.252 26.3956C415.942 25.293 414.108 24.665 411.749 24.5114C410.147 24.407 408.779 24.5457 407.646 24.9274C406.513 25.2941 405.627 25.8513 404.986 26.5991C404.36 27.3479 404.015 28.2212 403.95 29.2191C403.865 30.0487 403.992 30.7858 404.33 31.4303C404.682 32.0758 405.184 32.6475 405.835 33.1454C406.487 33.6281 407.248 34.0649 408.118 34.4556C408.99 34.8312 409.925 35.1653 410.923 35.4581L415.031 36.7277C417.027 37.3132 418.848 38.039 420.492 38.9053C422.136 39.7715 423.542 40.7968 424.71 41.9813C425.878 43.1657 426.753 44.5285 427.336 46.0696C427.934 47.6118 428.178 49.351 428.067 51.2872C427.867 54.1287 426.981 56.5459 425.408 58.5389C423.852 60.5178 421.691 61.9941 418.925 62.968C416.175 63.9277 412.91 64.2845 409.13 64.0384C405.381 63.7942 402.152 63.0071 399.445 61.6768C396.753 60.3476 394.702 58.5059 393.291 56.1517C391.897 53.7834 391.27 50.926 391.412 47.5797L400.915 48.1984C400.919 49.7626 401.281 51.0919 401.999 52.1864C402.733 53.2667 403.749 54.1147 405.045 54.7305C406.357 55.3322 407.86 55.6882 409.553 55.7984C411.216 55.9067 412.676 55.7588 413.932 55.3547C415.203 54.9516 416.207 54.3413 416.944 53.5238C417.68 52.7063 418.085 51.7381 418.158 50.6193C418.226 49.576 417.973 48.6789 417.399 47.9279C416.841 47.1779 415.988 46.5151 414.841 45.9393C413.709 45.3646 412.31 44.818 410.643 44.2995L405.668 42.7002C401.815 41.4927 398.82 39.8021 396.684 37.6284C394.548 35.4547 393.599 32.6523 393.837 29.2212C394.005 26.408 394.914 23.9998 396.563 21.9966C398.226 19.9944 400.427 18.4903 403.165 17.4843C405.903 16.4782 408.965 16.0854 412.352 16.3059C415.799 16.5304 418.77 17.3159 421.263 18.6626C423.772 20.0103 425.676 21.7817 426.975 23.9768C428.275 26.1719 428.857 28.6544 428.723 31.4242L419.311 30.8114Z" fill="#78350F"/>
<path d="M443.528 27.9648L445.112 20.0072L482.604 27.4683L481.02 35.4259L467.044 32.6446L459.543 70.3373L450.003 68.4388L457.504 30.7461L443.528 27.9648Z" fill="#78350F"/>
<path d="M506.727 34.7225L493.21 79.262L483.793 76.4041L497.311 31.8647L506.727 34.7225Z" fill="#78350F"/>
<path d="M559.047 54.9897L540.931 97.8647L533.101 94.5563L525.85 59.6892L525.536 59.5565L514.134 86.5418L505.069 82.7115L523.186 39.8364L531.141 43.1979L538.254 77.9822L538.631 78.1414L550.024 51.177L559.047 54.9897Z" fill="#78350F"/>
<path d="M589.537 80.7006L594.084 73.9806L625.745 95.4023L621.198 102.122L609.396 94.137L587.86 125.968L579.803 120.517L601.339 88.686L589.537 80.7006Z" fill="#78350F"/>
<path d="M607.877 140.566L638.691 105.68L662.198 126.443L656.826 132.524L640.695 118.276L633.353 126.589L648.275 139.769L642.903 145.85L627.982 132.67L620.624 140.999L636.824 155.308L631.452 161.389L607.877 140.566Z" fill="#78350F"/>
<path d="M681.63 146.586L675.796 164.071L676.034 164.346L694.198 161.076L701.48 169.472L674.592 173.991L666.527 200.211L659.111 191.661L664.858 174.04L664.619 173.766L646.364 176.964L638.978 168.449L666.104 164.205L674.318 138.156L681.63 146.586Z" fill="#78350F"/>
<path d="M676.833 215.052L671.137 206.178L718.987 194.558L725.837 205.231L695.334 243.876L689.637 235.001L713.559 205.793L713.363 205.487L676.833 215.052ZM691.874 204.615L705.329 225.578L698.864 229.727L685.409 208.765L691.874 204.615Z" fill="#78350F"/>
<path d="M740.34 261.561C741.929 260.628 742.895 259.323 743.239 257.646C743.583 255.968 743.26 254.057 742.27 251.91C741.597 250.452 740.823 249.316 739.947 248.502C739.084 247.682 738.172 247.169 737.209 246.962C736.252 246.769 735.32 246.883 734.412 247.301C733.642 247.623 733.055 248.086 732.65 248.69C732.251 249.308 731.988 250.022 731.86 250.831C731.747 251.635 731.726 252.512 731.798 253.463C731.884 254.408 732.036 255.389 732.255 256.406L733.099 260.622C733.537 262.656 733.767 264.602 733.79 266.461C733.814 268.319 733.583 270.044 733.099 271.635C732.616 273.227 731.836 274.646 730.759 275.894C729.689 277.155 728.277 278.199 726.522 279.025C723.929 280.205 721.382 280.579 718.881 280.148C716.399 279.725 714.071 278.53 711.895 276.563C709.74 274.604 707.869 271.905 706.282 268.466C704.707 265.054 703.859 261.841 703.737 258.827C703.621 255.827 704.261 253.145 705.657 250.782C707.073 248.427 709.285 246.513 712.294 245.042L716.284 253.688C714.911 254.439 713.915 255.39 713.296 256.544C712.697 257.705 712.436 259.001 712.513 260.434C712.61 261.875 713.014 263.365 713.725 264.906C714.423 266.419 715.25 267.632 716.204 268.543C717.165 269.468 718.18 270.059 719.25 270.316C720.32 270.573 721.364 270.467 722.382 269.998C723.331 269.56 723.999 268.909 724.385 268.047C724.778 267.198 724.954 266.133 724.913 264.85C724.878 263.581 724.691 262.091 724.351 260.378L723.384 255.243C722.606 251.28 722.663 247.841 723.555 244.927C724.446 242.013 726.456 239.842 729.586 238.415C732.138 237.221 734.688 236.87 737.235 237.363C739.789 237.871 742.16 239.087 744.351 241.014C746.541 242.94 748.347 245.444 749.769 248.525C751.216 251.662 751.943 254.648 751.949 257.481C751.961 260.329 751.313 262.848 750.004 265.037C748.694 267.226 746.791 268.922 744.292 270.125L740.34 261.561Z" fill="#78350F"/>
</svg>
